<svg xmlns="http://www.w3.org/2000/svg" xmlns:xlink="http://www.w3.org/1999/xlink" width="420" zoomAndPan="magnify" viewBox="0 0 315 128.249994" height="171" preserveAspectRatio="xMidYMid meet" version="1.0"><defs><g/></defs><g fill="#ffffff" fill-opacity="1"><g transform="translate(14.592876, 67.791007)"><g><path d="M 5.46875 0 L 5.46875 -38.296875 L 14.0625 -38.296875 L 24.828125 -14.390625 L 36.21875 -38.296875 L 44.6875 -38.296875 L 44.6875 0 L 38.296875 0 L 38.296875 -29 L 24.828125 0 L 11.875 -29 L 11.875 0 Z M 5.46875 0 "/></g></g></g><g fill="#ffffff" fill-opacity="1"><g transform="translate(56.053843, 67.791007)"><g><path d="M 38.84375 0 L 34.515625 -9.578125 L 15.8125 -9.578125 L 11.8125 0 L 5.203125 0 L 21.21875 -38.296875 L 28.0625 -38.296875 L 45.453125 0 Z M 18.328125 -15.640625 L 31.734375 -15.640625 L 24.78125 -31.078125 Z M 18.328125 -15.640625 "/></g></g></g><g fill="#ffffff" fill-opacity="1"><g transform="translate(98.007116, 67.791007)"><g><path d="M 39.28125 -26.53125 C 39.28125 -25.070312 38.941406 -23.59375 38.265625 -22.09375 C 37.585938 -20.601562 36.566406 -19.265625 35.203125 -18.078125 C 33.835938 -16.890625 32.113281 -15.96875 30.03125 -15.3125 L 37.03125 0 L 30.578125 0 L 23.953125 -14.5 L 11.875 -14.5 L 11.875 0 L 5.46875 0 L 5.46875 -38.296875 L 24.171875 -38.296875 C 27.566406 -38.296875 30.375 -37.773438 32.59375 -36.734375 C 34.820312 -35.691406 36.492188 -34.285156 37.609375 -32.515625 C 38.722656 -30.753906 39.28125 -28.757812 39.28125 -26.53125 Z M 11.875 -32.109375 L 11.875 -20.625 L 24.171875 -20.625 C 29.867188 -20.625 32.71875 -22.59375 32.71875 -26.53125 C 32.71875 -30.25 29.867188 -32.109375 24.171875 -32.109375 Z M 11.875 -32.109375 "/></g></g></g><g fill="#ffffff" fill-opacity="1"><g transform="translate(134.052816, 67.791007)"><g><path d="M 43.046875 -13.234375 C 42.390625 -10.578125 41.238281 -8.191406 39.59375 -6.078125 C 37.957031 -3.960938 35.910156 -2.300781 33.453125 -1.09375 C 30.992188 0.113281 28.191406 0.71875 25.046875 0.71875 C 22.097656 0.71875 19.425781 0.1875 17.03125 -0.875 C 14.644531 -1.9375 12.585938 -3.382812 10.859375 -5.21875 C 9.128906 -7.0625 7.796875 -9.175781 6.859375 -11.5625 C 5.929688 -13.957031 5.46875 -16.46875 5.46875 -19.09375 C 5.46875 -21.644531 5.941406 -24.097656 6.890625 -26.453125 C 7.835938 -28.804688 9.175781 -30.910156 10.90625 -32.765625 C 12.644531 -34.628906 14.71875 -36.097656 17.125 -37.171875 C 19.53125 -38.242188 22.171875 -38.78125 25.046875 -38.78125 C 28.191406 -38.78125 30.957031 -38.195312 33.34375 -37.03125 C 35.726562 -35.863281 37.675781 -34.25 39.1875 -32.1875 C 40.707031 -30.132812 41.6875 -27.789062 42.125 -25.15625 L 36.265625 -22.59375 C 36.117188 -25.695312 35.050781 -28.140625 33.0625 -29.921875 C 31.082031 -31.710938 28.394531 -32.609375 25 -32.609375 C 22.300781 -32.609375 19.972656 -32.003906 18.015625 -30.796875 C 16.066406 -29.597656 14.570312 -27.972656 13.53125 -25.921875 C 12.5 -23.878906 11.984375 -21.582031 11.984375 -19.03125 C 11.984375 -14.695312 13.128906 -11.351562 15.421875 -9 C 17.722656 -6.644531 20.914062 -5.46875 25 -5.46875 C 28.613281 -5.46875 31.476562 -6.320312 33.59375 -8.03125 C 35.707031 -9.75 36.945312 -12.378906 37.3125 -15.921875 Z M 43.046875 -13.234375 "/></g></g></g><g fill="#ffffff" fill-opacity="1"><g transform="translate(173.872804, 67.791007)"><g><path d="M 37.90625 -38.296875 L 37.96875 -18.703125 C 37.96875 -14.328125 37.226562 -10.695312 35.75 -7.8125 C 34.269531 -4.9375 32.304688 -2.796875 29.859375 -1.390625 C 27.421875 0.015625 24.742188 0.71875 21.828125 0.71875 C 18.910156 0.71875 16.210938 0.015625 13.734375 -1.390625 C 11.253906 -2.796875 9.265625 -4.9375 7.765625 -7.8125 C 6.273438 -10.695312 5.53125 -14.328125 5.53125 -18.703125 L 5.46875 -38.296875 L 11.875 -38.296875 L 11.921875 -18.703125 C 11.921875 -15.972656 12.1875 -13.738281 12.71875 -12 C 13.25 -10.269531 13.976562 -8.929688 14.90625 -7.984375 C 15.832031 -7.035156 16.878906 -6.367188 18.046875 -5.984375 C 19.210938 -5.609375 20.453125 -5.421875 21.765625 -5.421875 C 23.628906 -5.421875 25.300781 -5.773438 26.78125 -6.484375 C 28.257812 -7.191406 29.425781 -8.503906 30.28125 -10.421875 C 31.132812 -12.335938 31.5625 -15.097656 31.5625 -18.703125 L 31.515625 -38.296875 Z M 37.90625 -38.296875 "/></g></g></g><g fill="#ffffff" fill-opacity="1"><g transform="translate(208.605704, 67.791007)"><g><path d="M 11.109375 -13.78125 C 12.453125 -11.050781 14.0625 -9.117188 15.9375 -7.984375 C 17.820312 -6.859375 20.09375 -6.296875 22.75 -6.296875 C 25.445312 -6.296875 27.5625 -6.503906 29.09375 -6.921875 C 30.632812 -7.335938 31.734375 -7.921875 32.390625 -8.671875 C 33.046875 -9.421875 33.375 -10.285156 33.375 -11.265625 C 33.375 -12.578125 32.71875 -13.671875 31.40625 -14.546875 C 30.09375 -15.421875 27.882812 -15.96875 24.78125 -16.1875 L 20.890625 -16.46875 C 16.515625 -16.757812 13.195312 -17.820312 10.9375 -19.65625 C 8.675781 -21.5 7.546875 -23.914062 7.546875 -26.90625 C 7.546875 -29.03125 8.070312 -30.945312 9.125 -32.65625 C 10.1875 -34.375 11.835938 -35.742188 14.078125 -36.765625 C 16.328125 -37.785156 19.21875 -38.296875 22.75 -38.296875 C 25.78125 -38.296875 28.304688 -37.929688 30.328125 -37.203125 C 32.359375 -36.472656 34.046875 -35.421875 35.390625 -34.046875 C 36.742188 -32.679688 37.875 -31.035156 38.78125 -29.109375 L 33.203125 -25.8125 C 32.222656 -27.863281 30.898438 -29.40625 29.234375 -30.4375 C 27.578125 -31.476562 25.414062 -32 22.75 -32 C 19.507812 -32 17.222656 -31.5625 15.890625 -30.6875 C 14.554688 -29.8125 13.890625 -28.535156 13.890625 -26.859375 C 13.890625 -25.503906 14.523438 -24.488281 15.796875 -23.8125 C 17.078125 -23.144531 18.773438 -22.71875 20.890625 -22.53125 L 24.828125 -22.203125 C 27.785156 -21.984375 30.375 -21.472656 32.59375 -20.671875 C 34.820312 -19.867188 36.566406 -18.765625 37.828125 -17.359375 C 39.085938 -15.960938 39.71875 -14.222656 39.71875 -12.140625 C 39.71875 -8.273438 38.226562 -5.285156 35.25 -3.171875 C 32.28125 -1.054688 28.113281 0 22.75 0 C 18.125 0 14.46875 -0.863281 11.78125 -2.59375 C 9.101562 -4.332031 7 -6.804688 5.46875 -10.015625 Z M 11.109375 -13.78125 "/></g></g></g><g fill="#ffffff" fill-opacity="1"><g transform="translate(14.592876, 104.6562)"><g><path d="M 30.65625 -35.421875 L 36.578125 -35.421875 L 36.578125 0 L 30.65625 0 L 30.65625 -14.921875 L 10.71875 -14.921875 L 10.71875 0 L 4.8125 0 L 4.8125 -35.421875 L 10.71875 -35.421875 L 10.71875 -20.546875 L 30.65625 -20.546875 Z M 30.65625 -35.421875 "/></g></g></g><g fill="#ffffff" fill-opacity="1"><g transform="translate(47.936529, 104.6562)"><g><path d="M 35.921875 0 L 31.921875 -8.859375 L 14.625 -8.859375 L 10.921875 0 L 4.8125 0 L 19.625 -35.421875 L 25.953125 -35.421875 L 42.046875 0 Z M 16.953125 -14.46875 L 29.34375 -14.46875 L 22.921875 -28.734375 Z M 16.953125 -14.46875 "/></g></g></g><g fill="#ffffff" fill-opacity="1"><g transform="translate(86.744833, 104.6562)"><g><path d="M 36.328125 -24.53125 C 36.328125 -23.1875 36.015625 -21.820312 35.390625 -20.4375 C 34.765625 -19.050781 33.816406 -17.8125 32.546875 -16.71875 C 31.285156 -15.625 29.695312 -14.773438 27.78125 -14.171875 L 34.25 0 L 28.28125 0 L 22.15625 -13.40625 L 10.984375 -13.40625 L 10.984375 0 L 5.0625 0 L 5.0625 -35.421875 L 22.359375 -35.421875 C 25.492188 -35.421875 28.085938 -34.9375 30.140625 -33.96875 C 32.203125 -33.007812 33.75 -31.710938 34.78125 -30.078125 C 35.8125 -28.441406 36.328125 -26.59375 36.328125 -24.53125 Z M 10.984375 -29.703125 L 10.984375 -19.078125 L 22.359375 -19.078125 C 27.617188 -19.078125 30.25 -20.894531 30.25 -24.53125 C 30.25 -27.976562 27.617188 -29.703125 22.359375 -29.703125 Z M 10.984375 -29.703125 "/></g></g></g><g fill="#ffffff" fill-opacity="1"><g transform="translate(120.088483, 104.6562)"><g><path d="M 33.09375 -35.421875 L 33.09375 -29.796875 L 22.0625 -29.796875 L 22.0625 0 L 16.09375 0 L 16.09375 -29.796875 L 5.0625 -29.796875 L 5.0625 -35.421875 Z M 33.09375 -35.421875 "/></g></g></g><g fill="#ffffff" fill-opacity="1"><g transform="translate(150.193824, 104.6562)"><g><path d="M 5.0625 0 L 5.0625 -35.421875 L 13 -35.421875 L 22.96875 -13.3125 L 33.5 -35.421875 L 41.328125 -35.421875 L 41.328125 0 L 35.421875 0 L 35.421875 -26.8125 L 22.96875 0 L 10.984375 -26.8125 L 10.984375 0 Z M 5.0625 0 "/></g></g></g><g fill="#ffffff" fill-opacity="1"><g transform="translate(188.546744, 104.6562)"><g><path d="M 35.921875 0 L 31.921875 -8.859375 L 14.625 -8.859375 L 10.921875 0 L 4.8125 0 L 19.625 -35.421875 L 25.953125 -35.421875 L 42.046875 0 Z M 16.953125 -14.46875 L 29.34375 -14.46875 L 22.921875 -28.734375 Z M 16.953125 -14.46875 "/></g></g></g><g fill="#ffffff" fill-opacity="1"><g transform="translate(227.355051, 104.6562)"><g><path d="M 31.421875 -35.421875 L 37.34375 -35.421875 L 37.34375 0 L 31.421875 0 L 10.984375 -26.203125 L 10.984375 0 L 5.0625 0 L 5.0625 -35.421875 L 10.984375 -35.421875 L 31.421875 -8.75 Z M 31.421875 -35.421875 "/></g></g></g><g fill="#ffffff" fill-opacity="1"><g transform="translate(261.710671, 104.6562)"><g><path d="M 31.421875 -35.421875 L 37.34375 -35.421875 L 37.34375 0 L 31.421875 0 L 10.984375 -26.203125 L 10.984375 0 L 5.0625 0 L 5.0625 -35.421875 L 10.984375 -35.421875 L 31.421875 -8.75 Z M 31.421875 -35.421875 "/></g></g></g></svg>