<svg xmlns="http://www.w3.org/2000/svg" xmlns:xlink="http://www.w3.org/1999/xlink" width="435" zoomAndPan="magnify" viewBox="0 0 326.25 263.250001" height="351" preserveAspectRatio="xMidYMid meet" version="1.0"><defs><g/></defs><g fill="#3dcfb6" fill-opacity="1"><g transform="translate(41.802341, 182.130763)"><g><path d="M 106.09375 0 L 105.9375 -61.890625 L 75.59375 -10.90625 L 64.828125 -10.90625 L 34.625 -60.5625 L 34.625 0 L 12.234375 0 L 12.234375 -103.140625 L 31.96875 -103.140625 L 70.578125 -39.046875 L 108.59375 -103.140625 L 128.1875 -103.140625 L 128.484375 0 Z M 106.09375 0 "/></g></g></g><g fill="#3dcfb6" fill-opacity="1"><g transform="translate(163.934182, 182.130763)"><g><path d="M 106.828125 -103.140625 L 106.828125 0 L 82.953125 0 L 82.953125 -42.28125 L 36.09375 -42.28125 L 36.09375 0 L 12.234375 0 L 12.234375 -103.140625 L 36.09375 -103.140625 L 36.09375 -62.46875 L 82.953125 -62.46875 L 82.953125 -103.140625 Z M 106.828125 -103.140625 "/></g></g></g><g fill="#ffffff" fill-opacity="1"><g transform="translate(53.608631, 195.310885)"><g><path d="M 10.96875 0 L 10.953125 -6.40625 L 7.8125 -1.125 L 6.703125 -1.125 L 3.578125 -6.265625 L 3.578125 0 L 1.265625 0 L 1.265625 -10.671875 L 3.3125 -10.671875 L 7.296875 -4.03125 L 11.234375 -10.671875 L 13.25 -10.671875 L 13.28125 0 Z M 10.96875 0 "/></g></g></g><g fill="#ffffff" fill-opacity="1"><g transform="translate(71.552103, 195.310885)"><g><path d="M 8.28125 -2.28125 L 3.34375 -2.28125 L 2.390625 0 L -0.140625 0 L 4.609375 -10.671875 L 7.046875 -10.671875 L 11.828125 0 L 9.234375 0 Z M 7.515625 -4.15625 L 5.8125 -8.234375 L 4.125 -4.15625 Z M 7.515625 -4.15625 "/></g></g></g><g fill="#ffffff" fill-opacity="1"><g transform="translate(86.616902, 195.310885)"><g><path d="M 8.0625 0 L 6 -2.96875 L 3.734375 -2.96875 L 3.734375 0 L 1.265625 0 L 1.265625 -10.671875 L 5.875 -10.671875 C 6.820312 -10.671875 7.644531 -10.507812 8.34375 -10.1875 C 9.039062 -9.875 9.578125 -9.425781 9.953125 -8.84375 C 10.328125 -8.269531 10.515625 -7.585938 10.515625 -6.796875 C 10.515625 -6.003906 10.320312 -5.320312 9.9375 -4.75 C 9.5625 -4.175781 9.019531 -3.734375 8.3125 -3.421875 L 10.703125 0 Z M 8.015625 -6.796875 C 8.015625 -7.390625 7.820312 -7.847656 7.4375 -8.171875 C 7.050781 -8.492188 6.488281 -8.65625 5.75 -8.65625 L 3.734375 -8.65625 L 3.734375 -4.9375 L 5.75 -4.9375 C 6.488281 -4.9375 7.050781 -5.097656 7.4375 -5.421875 C 7.820312 -5.742188 8.015625 -6.203125 8.015625 -6.796875 Z M 8.015625 -6.796875 "/></g></g></g><g fill="#ffffff" fill-opacity="1"><g transform="translate(101.209539, 195.310885)"><g><path d="M 6.375 0.1875 C 5.28125 0.1875 4.296875 -0.046875 3.421875 -0.515625 C 2.546875 -0.992188 1.851562 -1.648438 1.34375 -2.484375 C 0.84375 -3.328125 0.59375 -4.273438 0.59375 -5.328125 C 0.59375 -6.390625 0.84375 -7.335938 1.34375 -8.171875 C 1.851562 -9.015625 2.546875 -9.671875 3.421875 -10.140625 C 4.296875 -10.609375 5.285156 -10.84375 6.390625 -10.84375 C 7.304688 -10.84375 8.140625 -10.679688 8.890625 -10.359375 C 9.640625 -10.035156 10.265625 -9.566406 10.765625 -8.953125 L 9.1875 -7.5 C 8.46875 -8.332031 7.570312 -8.75 6.5 -8.75 C 5.84375 -8.75 5.253906 -8.601562 4.734375 -8.3125 C 4.222656 -8.019531 3.820312 -7.613281 3.53125 -7.09375 C 3.238281 -6.582031 3.09375 -5.992188 3.09375 -5.328125 C 3.09375 -4.671875 3.238281 -4.082031 3.53125 -3.5625 C 3.820312 -3.039062 4.222656 -2.632812 4.734375 -2.34375 C 5.253906 -2.0625 5.84375 -1.921875 6.5 -1.921875 C 7.570312 -1.921875 8.46875 -2.34375 9.1875 -3.1875 L 10.765625 -1.71875 C 10.265625 -1.101562 9.632812 -0.628906 8.875 -0.296875 C 8.125 0.0234375 7.289062 0.1875 6.375 0.1875 Z M 6.375 0.1875 "/></g></g></g><g fill="#ffffff" fill-opacity="1"><g transform="translate(115.77171, 195.310885)"><g><path d="M 6 0.1875 C 4.476562 0.1875 3.289062 -0.234375 2.4375 -1.078125 C 1.59375 -1.921875 1.171875 -3.125 1.171875 -4.6875 L 1.171875 -10.671875 L 3.640625 -10.671875 L 3.640625 -4.78125 C 3.640625 -2.875 4.429688 -1.921875 6.015625 -1.921875 C 6.785156 -1.921875 7.375 -2.148438 7.78125 -2.609375 C 8.1875 -3.078125 8.390625 -3.800781 8.390625 -4.78125 L 8.390625 -10.671875 L 10.828125 -10.671875 L 10.828125 -4.6875 C 10.828125 -3.125 10.398438 -1.921875 9.546875 -1.078125 C 8.703125 -0.234375 7.519531 0.1875 6 0.1875 Z M 6 0.1875 "/></g></g></g><g fill="#ffffff" fill-opacity="1"><g transform="translate(131.171592, 195.310885)"><g><path d="M 4.765625 0.1875 C 3.921875 0.1875 3.101562 0.0703125 2.3125 -0.15625 C 1.53125 -0.382812 0.898438 -0.679688 0.421875 -1.046875 L 1.265625 -2.90625 C 1.722656 -2.570312 2.265625 -2.300781 2.890625 -2.09375 C 3.523438 -1.894531 4.15625 -1.796875 4.78125 -1.796875 C 5.476562 -1.796875 5.992188 -1.898438 6.328125 -2.109375 C 6.671875 -2.316406 6.84375 -2.59375 6.84375 -2.9375 C 6.84375 -3.195312 6.742188 -3.410156 6.546875 -3.578125 C 6.347656 -3.742188 6.09375 -3.875 5.78125 -3.96875 C 5.46875 -4.070312 5.050781 -4.1875 4.53125 -4.3125 C 3.71875 -4.5 3.050781 -4.691406 2.53125 -4.890625 C 2.007812 -5.085938 1.5625 -5.394531 1.1875 -5.8125 C 0.820312 -6.238281 0.640625 -6.8125 0.640625 -7.53125 C 0.640625 -8.144531 0.804688 -8.703125 1.140625 -9.203125 C 1.472656 -9.710938 1.976562 -10.113281 2.65625 -10.40625 C 3.332031 -10.695312 4.160156 -10.84375 5.140625 -10.84375 C 5.816406 -10.84375 6.476562 -10.757812 7.125 -10.59375 C 7.78125 -10.4375 8.351562 -10.207031 8.84375 -9.90625 L 8.078125 -8.03125 C 7.085938 -8.582031 6.101562 -8.859375 5.125 -8.859375 C 4.425781 -8.859375 3.910156 -8.75 3.578125 -8.53125 C 3.253906 -8.3125 3.09375 -8.015625 3.09375 -7.640625 C 3.09375 -7.273438 3.28125 -7.003906 3.65625 -6.828125 C 4.039062 -6.648438 4.625 -6.476562 5.40625 -6.3125 C 6.21875 -6.113281 6.882812 -5.914062 7.40625 -5.71875 C 7.925781 -5.53125 8.367188 -5.226562 8.734375 -4.8125 C 9.109375 -4.394531 9.296875 -3.832031 9.296875 -3.125 C 9.296875 -2.507812 9.125 -1.953125 8.78125 -1.453125 C 8.4375 -0.953125 7.925781 -0.550781 7.25 -0.25 C 6.570312 0.0390625 5.742188 0.1875 4.765625 0.1875 Z M 4.765625 0.1875 "/></g></g></g><g fill="#ffffff" fill-opacity="1"><g transform="translate(144.286807, 195.310885)"><g/></g></g><g fill="#ffffff" fill-opacity="1"><g transform="translate(151.994981, 195.310885)"><g><path d="M 11.046875 -10.671875 L 11.046875 0 L 8.578125 0 L 8.578125 -4.375 L 3.734375 -4.375 L 3.734375 0 L 1.265625 0 L 1.265625 -10.671875 L 3.734375 -10.671875 L 3.734375 -6.453125 L 8.578125 -6.453125 L 8.578125 -10.671875 Z M 11.046875 -10.671875 "/></g></g></g><g fill="#ffffff" fill-opacity="1"><g transform="translate(167.699482, 195.310885)"><g><path d="M 8.28125 -2.28125 L 3.34375 -2.28125 L 2.390625 0 L -0.140625 0 L 4.609375 -10.671875 L 7.046875 -10.671875 L 11.828125 0 L 9.234375 0 Z M 7.515625 -4.15625 L 5.8125 -8.234375 L 4.125 -4.15625 Z M 7.515625 -4.15625 "/></g></g></g><g fill="#ffffff" fill-opacity="1"><g transform="translate(182.764278, 195.310885)"><g><path d="M 8.0625 0 L 6 -2.96875 L 3.734375 -2.96875 L 3.734375 0 L 1.265625 0 L 1.265625 -10.671875 L 5.875 -10.671875 C 6.820312 -10.671875 7.644531 -10.507812 8.34375 -10.1875 C 9.039062 -9.875 9.578125 -9.425781 9.953125 -8.84375 C 10.328125 -8.269531 10.515625 -7.585938 10.515625 -6.796875 C 10.515625 -6.003906 10.320312 -5.320312 9.9375 -4.75 C 9.5625 -4.175781 9.019531 -3.734375 8.3125 -3.421875 L 10.703125 0 Z M 8.015625 -6.796875 C 8.015625 -7.390625 7.820312 -7.847656 7.4375 -8.171875 C 7.050781 -8.492188 6.488281 -8.65625 5.75 -8.65625 L 3.734375 -8.65625 L 3.734375 -4.9375 L 5.75 -4.9375 C 6.488281 -4.9375 7.050781 -5.097656 7.4375 -5.421875 C 7.820312 -5.742188 8.015625 -6.203125 8.015625 -6.796875 Z M 8.015625 -6.796875 "/></g></g></g><g fill="#ffffff" fill-opacity="1"><g transform="translate(197.356911, 195.310885)"><g><path d="M 3.46875 -8.65625 L 0.0625 -8.65625 L 0.0625 -10.671875 L 9.359375 -10.671875 L 9.359375 -8.65625 L 5.9375 -8.65625 L 5.9375 0 L 3.46875 0 Z M 3.46875 -8.65625 "/></g></g></g><g fill="#ffffff" fill-opacity="1"><g transform="translate(210.167506, 195.310885)"><g><path d="M 10.96875 0 L 10.953125 -6.40625 L 7.8125 -1.125 L 6.703125 -1.125 L 3.578125 -6.265625 L 3.578125 0 L 1.265625 0 L 1.265625 -10.671875 L 3.3125 -10.671875 L 7.296875 -4.03125 L 11.234375 -10.671875 L 13.25 -10.671875 L 13.28125 0 Z M 10.96875 0 "/></g></g></g><g fill="#ffffff" fill-opacity="1"><g transform="translate(228.110975, 195.310885)"><g><path d="M 8.28125 -2.28125 L 3.34375 -2.28125 L 2.390625 0 L -0.140625 0 L 4.609375 -10.671875 L 7.046875 -10.671875 L 11.828125 0 L 9.234375 0 Z M 7.515625 -4.15625 L 5.8125 -8.234375 L 4.125 -4.15625 Z M 7.515625 -4.15625 "/></g></g></g><g fill="#ffffff" fill-opacity="1"><g transform="translate(243.175771, 195.310885)"><g><path d="M 11.046875 -10.671875 L 11.046875 0 L 9.015625 0 L 3.703125 -6.46875 L 3.703125 0 L 1.265625 0 L 1.265625 -10.671875 L 3.3125 -10.671875 L 8.609375 -4.1875 L 8.609375 -10.671875 Z M 11.046875 -10.671875 "/></g></g></g><g fill="#ffffff" fill-opacity="1"><g transform="translate(258.880272, 195.310885)"><g><path d="M 11.046875 -10.671875 L 11.046875 0 L 9.015625 0 L 3.703125 -6.46875 L 3.703125 0 L 1.265625 0 L 1.265625 -10.671875 L 3.3125 -10.671875 L 8.609375 -4.1875 L 8.609375 -10.671875 Z M 11.046875 -10.671875 "/></g></g></g></svg>