<svg xmlns="http://www.w3.org/2000/svg" xmlns:xlink="http://www.w3.org/1999/xlink" width="472" zoomAndPan="magnify" viewBox="0 0 354 213" height="284" preserveAspectRatio="xMidYMid meet" version="1.0"><defs><g/></defs><g fill="#3dcfb6" fill-opacity="1"><g transform="translate(78.985007, 147.92818)"><g><path d="M 86.15625 0 L 86.046875 -50.265625 L 61.390625 -8.859375 L 52.65625 -8.859375 L 28.125 -49.1875 L 28.125 0 L 9.9375 0 L 9.9375 -83.765625 L 25.96875 -83.765625 L 57.328125 -31.71875 L 88.203125 -83.765625 L 104.109375 -83.765625 L 104.359375 0 Z M 86.15625 0 "/></g></g></g><g fill="#3dcfb6" fill-opacity="1"><g transform="translate(178.181544, 147.92818)"><g><path d="M 86.765625 -83.765625 L 86.765625 0 L 67.375 0 L 67.375 -34.34375 L 29.3125 -34.34375 L 29.3125 0 L 9.9375 0 L 9.9375 -83.765625 L 29.3125 -83.765625 L 29.3125 -50.734375 L 67.375 -50.734375 L 67.375 -83.765625 Z M 86.765625 -83.765625 "/></g></g></g><g fill="#ffffff" fill-opacity="1"><g transform="translate(80.100071, 168.690428)"><g><path d="M 9.46875 0 L 9.453125 -5.515625 L 6.734375 -0.96875 L 5.78125 -0.96875 L 3.09375 -5.40625 L 3.09375 0 L 1.09375 0 L 1.09375 -9.203125 L 2.84375 -9.203125 L 6.296875 -3.484375 L 9.6875 -9.203125 L 11.4375 -9.203125 L 11.453125 0 Z M 9.46875 0 "/></g></g></g><g fill="#ffffff" fill-opacity="1"><g transform="translate(95.576227, 168.690428)"><g><path d="M 7.15625 -1.96875 L 2.875 -1.96875 L 2.0625 0 L -0.125 0 L 3.984375 -9.203125 L 6.078125 -9.203125 L 10.203125 0 L 7.96875 0 Z M 6.484375 -3.59375 L 5.015625 -7.109375 L 3.5625 -3.59375 Z M 6.484375 -3.59375 "/></g></g></g><g fill="#ffffff" fill-opacity="1"><g transform="translate(108.569542, 168.690428)"><g><path d="M 6.953125 0 L 5.171875 -2.5625 L 3.21875 -2.5625 L 3.21875 0 L 1.09375 0 L 1.09375 -9.203125 L 5.078125 -9.203125 C 5.890625 -9.203125 6.59375 -9.066406 7.1875 -8.796875 C 7.789062 -8.523438 8.253906 -8.140625 8.578125 -7.640625 C 8.898438 -7.140625 9.0625 -6.546875 9.0625 -5.859375 C 9.0625 -5.171875 8.894531 -4.578125 8.5625 -4.078125 C 8.238281 -3.585938 7.773438 -3.210938 7.171875 -2.953125 L 9.234375 0 Z M 6.90625 -5.859375 C 6.90625 -6.378906 6.738281 -6.773438 6.40625 -7.046875 C 6.070312 -7.328125 5.585938 -7.46875 4.953125 -7.46875 L 3.21875 -7.46875 L 3.21875 -4.25 L 4.953125 -4.25 C 5.585938 -4.25 6.070312 -4.390625 6.40625 -4.671875 C 6.738281 -4.953125 6.90625 -5.347656 6.90625 -5.859375 Z M 6.90625 -5.859375 "/></g></g></g><g fill="#ffffff" fill-opacity="1"><g transform="translate(121.155619, 168.690428)"><g><path d="M 5.5 0.15625 C 4.5625 0.15625 3.710938 -0.046875 2.953125 -0.453125 C 2.191406 -0.859375 1.59375 -1.421875 1.15625 -2.140625 C 0.726562 -2.867188 0.515625 -3.6875 0.515625 -4.59375 C 0.515625 -5.507812 0.726562 -6.328125 1.15625 -7.046875 C 1.59375 -7.773438 2.191406 -8.34375 2.953125 -8.75 C 3.710938 -9.15625 4.5625 -9.359375 5.5 -9.359375 C 6.300781 -9.359375 7.023438 -9.21875 7.671875 -8.9375 C 8.316406 -8.65625 8.859375 -8.253906 9.296875 -7.734375 L 7.921875 -6.46875 C 7.296875 -7.1875 6.523438 -7.546875 5.609375 -7.546875 C 5.035156 -7.546875 4.523438 -7.421875 4.078125 -7.171875 C 3.640625 -6.921875 3.296875 -6.570312 3.046875 -6.125 C 2.796875 -5.675781 2.671875 -5.164062 2.671875 -4.59375 C 2.671875 -4.03125 2.796875 -3.523438 3.046875 -3.078125 C 3.296875 -2.628906 3.640625 -2.28125 4.078125 -2.03125 C 4.523438 -1.78125 5.035156 -1.65625 5.609375 -1.65625 C 6.523438 -1.65625 7.296875 -2.019531 7.921875 -2.75 L 9.296875 -1.484375 C 8.859375 -0.953125 8.3125 -0.546875 7.65625 -0.265625 C 7.007812 0.015625 6.289062 0.15625 5.5 0.15625 Z M 5.5 0.15625 "/></g></g></g><g fill="#ffffff" fill-opacity="1"><g transform="translate(133.715421, 168.690428)"><g><path d="M 5.171875 0.15625 C 3.859375 0.15625 2.835938 -0.207031 2.109375 -0.9375 C 1.378906 -1.664062 1.015625 -2.703125 1.015625 -4.046875 L 1.015625 -9.203125 L 3.140625 -9.203125 L 3.140625 -4.125 C 3.140625 -2.476562 3.820312 -1.65625 5.1875 -1.65625 C 5.851562 -1.65625 6.359375 -1.851562 6.703125 -2.25 C 7.054688 -2.644531 7.234375 -3.269531 7.234375 -4.125 L 7.234375 -9.203125 L 9.34375 -9.203125 L 9.34375 -4.046875 C 9.34375 -2.703125 8.976562 -1.664062 8.25 -0.9375 C 7.519531 -0.207031 6.492188 0.15625 5.171875 0.15625 Z M 5.171875 0.15625 "/></g></g></g><g fill="#ffffff" fill-opacity="1"><g transform="translate(146.997743, 168.690428)"><g><path d="M 4.109375 0.15625 C 3.378906 0.15625 2.675781 0.0546875 2 -0.140625 C 1.320312 -0.335938 0.78125 -0.59375 0.375 -0.90625 L 1.09375 -2.515625 C 1.488281 -2.222656 1.957031 -1.988281 2.5 -1.8125 C 3.039062 -1.632812 3.582031 -1.546875 4.125 -1.546875 C 4.726562 -1.546875 5.175781 -1.632812 5.46875 -1.8125 C 5.757812 -2 5.90625 -2.238281 5.90625 -2.53125 C 5.90625 -2.75 5.816406 -2.929688 5.640625 -3.078125 C 5.472656 -3.222656 5.253906 -3.335938 4.984375 -3.421875 C 4.722656 -3.515625 4.363281 -3.613281 3.90625 -3.71875 C 3.195312 -3.882812 2.617188 -4.050781 2.171875 -4.21875 C 1.734375 -4.382812 1.351562 -4.648438 1.03125 -5.015625 C 0.707031 -5.390625 0.546875 -5.878906 0.546875 -6.484375 C 0.546875 -7.023438 0.691406 -7.507812 0.984375 -7.9375 C 1.273438 -8.375 1.710938 -8.71875 2.296875 -8.96875 C 2.878906 -9.226562 3.585938 -9.359375 4.421875 -9.359375 C 5.015625 -9.359375 5.585938 -9.285156 6.140625 -9.140625 C 6.703125 -9.003906 7.195312 -8.804688 7.625 -8.546875 L 6.96875 -6.921875 C 6.113281 -7.398438 5.265625 -7.640625 4.421875 -7.640625 C 3.816406 -7.640625 3.375 -7.539062 3.09375 -7.34375 C 2.8125 -7.15625 2.671875 -6.90625 2.671875 -6.59375 C 2.671875 -6.28125 2.832031 -6.046875 3.15625 -5.890625 C 3.488281 -5.734375 3.992188 -5.582031 4.671875 -5.4375 C 5.367188 -5.269531 5.941406 -5.101562 6.390625 -4.9375 C 6.835938 -4.769531 7.21875 -4.503906 7.53125 -4.140625 C 7.851562 -3.785156 8.015625 -3.300781 8.015625 -2.6875 C 8.015625 -2.164062 7.867188 -1.6875 7.578125 -1.25 C 7.285156 -0.820312 6.84375 -0.476562 6.25 -0.21875 C 5.664062 0.03125 4.953125 0.15625 4.109375 0.15625 Z M 4.109375 0.15625 "/></g></g></g><g fill="#ffffff" fill-opacity="1"><g transform="translate(158.309552, 168.690428)"><g/></g></g><g fill="#ffffff" fill-opacity="1"><g transform="translate(164.957813, 168.690428)"><g><path d="M 9.53125 -9.203125 L 9.53125 0 L 7.390625 0 L 7.390625 -3.765625 L 3.21875 -3.765625 L 3.21875 0 L 1.09375 0 L 1.09375 -9.203125 L 3.21875 -9.203125 L 3.21875 -5.578125 L 7.390625 -5.578125 L 7.390625 -9.203125 Z M 9.53125 -9.203125 "/></g></g></g><g fill="#ffffff" fill-opacity="1"><g transform="translate(178.502868, 168.690428)"><g><path d="M 7.15625 -1.96875 L 2.875 -1.96875 L 2.0625 0 L -0.125 0 L 3.984375 -9.203125 L 6.078125 -9.203125 L 10.203125 0 L 7.96875 0 Z M 6.484375 -3.59375 L 5.015625 -7.109375 L 3.5625 -3.59375 Z M 6.484375 -3.59375 "/></g></g></g><g fill="#ffffff" fill-opacity="1"><g transform="translate(191.496181, 168.690428)"><g><path d="M 6.953125 0 L 5.171875 -2.5625 L 3.21875 -2.5625 L 3.21875 0 L 1.09375 0 L 1.09375 -9.203125 L 5.078125 -9.203125 C 5.890625 -9.203125 6.59375 -9.066406 7.1875 -8.796875 C 7.789062 -8.523438 8.253906 -8.140625 8.578125 -7.640625 C 8.898438 -7.140625 9.0625 -6.546875 9.0625 -5.859375 C 9.0625 -5.171875 8.894531 -4.578125 8.5625 -4.078125 C 8.238281 -3.585938 7.773438 -3.210938 7.171875 -2.953125 L 9.234375 0 Z M 6.90625 -5.859375 C 6.90625 -6.378906 6.738281 -6.773438 6.40625 -7.046875 C 6.070312 -7.328125 5.585938 -7.46875 4.953125 -7.46875 L 3.21875 -7.46875 L 3.21875 -4.25 L 4.953125 -4.25 C 5.585938 -4.25 6.070312 -4.390625 6.40625 -4.671875 C 6.738281 -4.953125 6.90625 -5.347656 6.90625 -5.859375 Z M 6.90625 -5.859375 "/></g></g></g><g fill="#ffffff" fill-opacity="1"><g transform="translate(204.082255, 168.690428)"><g><path d="M 3 -7.46875 L 0.046875 -7.46875 L 0.046875 -9.203125 L 8.0625 -9.203125 L 8.0625 -7.46875 L 5.125 -7.46875 L 5.125 0 L 3 0 Z M 3 -7.46875 "/></g></g></g><g fill="#ffffff" fill-opacity="1"><g transform="translate(215.13133, 168.690428)"><g><path d="M 9.46875 0 L 9.453125 -5.515625 L 6.734375 -0.96875 L 5.78125 -0.96875 L 3.09375 -5.40625 L 3.09375 0 L 1.09375 0 L 1.09375 -9.203125 L 2.84375 -9.203125 L 6.296875 -3.484375 L 9.6875 -9.203125 L 11.4375 -9.203125 L 11.453125 0 Z M 9.46875 0 "/></g></g></g><g fill="#ffffff" fill-opacity="1"><g transform="translate(230.607484, 168.690428)"><g><path d="M 7.15625 -1.96875 L 2.875 -1.96875 L 2.0625 0 L -0.125 0 L 3.984375 -9.203125 L 6.078125 -9.203125 L 10.203125 0 L 7.96875 0 Z M 6.484375 -3.59375 L 5.015625 -7.109375 L 3.5625 -3.59375 Z M 6.484375 -3.59375 "/></g></g></g><g fill="#ffffff" fill-opacity="1"><g transform="translate(243.600796, 168.690428)"><g><path d="M 9.53125 -9.203125 L 9.53125 0 L 7.78125 0 L 3.1875 -5.578125 L 3.1875 0 L 1.09375 0 L 1.09375 -9.203125 L 2.84375 -9.203125 L 7.421875 -3.609375 L 7.421875 -9.203125 Z M 9.53125 -9.203125 "/></g></g></g><g fill="#ffffff" fill-opacity="1"><g transform="translate(257.145851, 168.690428)"><g><path d="M 9.53125 -9.203125 L 9.53125 0 L 7.78125 0 L 3.1875 -5.578125 L 3.1875 0 L 1.09375 0 L 1.09375 -9.203125 L 2.84375 -9.203125 L 7.421875 -3.609375 L 7.421875 -9.203125 Z M 9.53125 -9.203125 "/></g></g></g></svg>