<svg width="33" height="29" viewBox="0 0 33 29" fill="none" xmlns="http://www.w3.org/2000/svg">
<path d="M32.4861 14.5922C32.4861 12.3522 29.8577 10.4044 25.769 9.2357C26.7981 5.10352 26.4365 1.84787 24.4896 0.734826C22.5426 -0.39213 19.5526 0.929609 16.493 3.87917C13.4335 0.915696 10.4435 -0.39213 8.49652 0.734826C6.88331 1.667 6.28531 4.03222 6.82768 7.39917C6.92503 7.99744 7.0641 8.60961 7.21708 9.24961C3.12842 10.4183 0.5 12.3661 0.5 14.6061C0.5 16.8461 3.12842 18.78 7.21708 19.9627C7.0641 20.5887 6.92503 21.2148 6.82768 21.8131C6.28531 25.18 6.88331 27.5453 8.49652 28.4774C8.96936 28.7557 9.51173 28.8948 10.1097 28.8948C11.5282 28.8948 13.2388 28.1157 15.1023 26.5992C15.5613 26.2235 16.0341 25.7922 16.493 25.347C16.952 25.7922 17.4248 26.2235 17.8837 26.5992C19.7473 28.1157 21.4578 28.8948 22.8764 28.8948C23.4744 28.8948 24.0167 28.7557 24.4896 28.4774C26.1028 27.5453 26.7008 25.18 26.1723 21.8131C26.075 21.2148 25.9359 20.6027 25.7829 19.9627C29.8716 18.794 32.5 16.8461 32.5 14.6061L32.4861 14.5922ZM23.7942 1.93135C25.0458 2.65483 25.324 5.2983 24.42 8.88787C23.1128 8.58178 21.6804 8.35917 20.1645 8.22004C19.2884 6.98178 18.3705 5.85483 17.4665 4.867C19.5804 2.82178 21.5413 1.70874 22.8903 1.70874C23.2379 1.70874 23.5439 1.7783 23.8081 1.93135H23.7942ZM20.9572 17.1661C20.4565 18.0148 19.942 18.8496 19.4135 19.6287C18.4817 19.6983 17.5083 19.74 16.507 19.74C15.5056 19.74 14.5322 19.6983 13.6004 19.6287C13.0719 18.8496 12.5435 18.0148 12.0567 17.1661C11.5561 16.3035 11.111 15.4548 10.6938 14.5922C11.111 13.7296 11.5561 12.8809 12.0567 12.0183C12.5574 11.1418 13.0858 10.3209 13.6004 9.5557C14.5322 9.48613 15.5056 9.44439 16.507 9.44439C17.5083 9.44439 18.4817 9.48613 19.4135 9.5557C19.942 10.3209 20.4565 11.1418 20.9572 12.0183C21.4439 12.867 21.9029 13.7296 22.3201 14.5922C21.9168 15.4409 21.4718 16.2896 20.9572 17.1661ZM23.0432 16.22C23.4326 17.1522 23.7664 18.0566 24.0445 18.947C23.1545 19.1418 22.1949 19.3227 21.1797 19.4479C21.5135 18.9331 21.8333 18.4044 22.1532 17.8618C22.4731 17.3192 22.7651 16.7627 23.0432 16.22ZM16.493 23.3157C15.8672 22.634 15.2414 21.8827 14.6295 21.0757C15.2414 21.1035 15.8533 21.1174 16.493 21.1174C17.1328 21.1174 17.7447 21.1035 18.3566 21.0757C17.7447 21.8827 17.1189 22.62 16.493 23.3157ZM11.8064 19.4479C10.7912 19.3227 9.83159 19.1557 8.94155 18.947C9.21969 18.0566 9.55345 17.1522 9.94285 16.22C10.221 16.7627 10.513 17.3192 10.8329 17.8618C11.1528 18.4044 11.4726 18.9331 11.8064 19.4479ZM9.94285 12.9505C9.55345 12.0183 9.21969 11.114 8.94155 10.2235C9.83159 10.0287 10.7912 9.84787 11.8064 9.72265C11.4726 10.2374 11.1528 10.7661 10.8329 11.3087C10.513 11.8513 10.221 12.394 9.94285 12.9505ZM16.493 5.85483C17.105 6.52265 17.7308 7.27396 18.3566 8.09483C17.7447 8.067 17.1328 8.05309 16.493 8.05309C15.8533 8.05309 15.2414 8.067 14.6295 8.09483C15.2553 7.27396 15.8672 6.52265 16.493 5.85483ZM22.1532 11.3227C21.8333 10.78 21.5135 10.2513 21.1797 9.73657C22.1949 9.86178 23.1545 10.0287 24.0445 10.2374C23.7803 11.114 23.4465 12.0183 23.0432 12.9644C22.7651 12.4218 22.4591 11.8653 22.1532 11.3227ZM8.19057 7.17657C7.75945 4.46352 8.12103 2.55744 9.19187 1.94526C9.45611 1.79222 9.76206 1.72265 10.1097 1.72265C11.4587 1.72265 13.4196 2.8357 15.5335 4.88091C14.6156 5.86874 13.7116 6.9957 12.8355 8.23396C11.3196 8.37309 9.88722 8.5957 8.57996 8.90178C8.42699 8.31743 8.30183 7.73309 8.21838 7.19048L8.19057 7.17657ZM1.8907 14.5922C1.8907 13.1453 4.03238 11.587 7.59257 10.5713C7.99587 11.8653 8.52434 13.2148 9.15015 14.5922C8.52434 15.9557 7.99587 17.3053 7.59257 18.6131C4.04628 17.5974 1.8907 16.0531 1.8907 14.5922ZM14.2262 25.4861C12.0984 27.2113 10.2627 27.8514 9.19187 27.2392C8.12103 26.627 7.75945 24.707 8.19057 22.0079C8.27401 21.4513 8.41308 20.8809 8.55215 20.2966C9.85941 20.6027 11.2918 20.8253 12.8077 20.9644C13.6838 22.1887 14.5878 23.3296 15.5056 24.3314C15.0745 24.7487 14.6434 25.1522 14.2123 25.5L14.2262 25.4861ZM24.7955 22.0079C25.2266 24.7209 24.8651 26.627 23.7942 27.2392C22.7234 27.8514 20.8877 27.2113 18.7599 25.4861C18.3288 25.1383 17.8977 24.7348 17.4665 24.3174C18.3983 23.3157 19.3023 22.1887 20.1645 20.9644C21.6804 20.8253 23.1128 20.6027 24.42 20.2966C24.573 20.8809 24.6982 21.4653 24.7816 22.0079H24.7955ZM25.3935 18.5992C24.9902 17.3053 24.4618 15.9557 23.8359 14.5783C24.4757 13.187 24.9902 11.8374 25.3935 10.5574C28.9537 11.5731 31.0954 13.1174 31.0954 14.5783C31.0954 16.0392 28.9537 17.5835 25.3935 18.5992Z" fill="#61DAFB"/>
</svg>
